<svg width="512" height="481" viewBox="0 0 512 481" fill="none" xmlns="http://www.w3.org/2000/svg">



<path d="M305.286 326.641V240.945L302.016 241.219C288.902 242.303 276.04 245.438 263.898 250.511L258.143 252.9V338.257L262.334 336.515C274.898 331.287 288.201 328.053 301.763 326.927L305.286 326.641Z" fill="#57BBDD"/>
<path d="M316 253.614H309.571V328.614C309.576 329.731 308.719 330.665 307.604 330.757L302.116 331.207C300.532 331.338 298.952 331.5 297.379 331.693C296.868 331.755 296.361 331.837 295.853 331.908C294.792 332.049 293.733 332.192 292.678 332.36C292.062 332.458 291.451 332.573 290.838 332.681C289.893 332.846 288.946 333.011 288.004 333.197C287.36 333.326 286.718 333.47 286.062 333.609C285.164 333.8 284.266 333.994 283.375 334.207C282.706 334.366 282.04 334.534 281.375 334.704C280.508 334.918 279.645 335.149 278.782 335.39C278.112 335.574 277.441 335.769 276.773 335.965C275.916 336.219 275.071 336.476 274.225 336.746C273.562 336.96 272.899 337.175 272.239 337.388C271.391 337.674 270.548 337.969 269.708 338.274C269.065 338.507 268.422 338.741 267.765 338.987C267.471 339.099 267.179 339.218 266.886 339.332H316V253.614Z" fill="#57BBDD"/>
<path d="M209.984 241.219L206.714 240.945V326.647L210.517 326.97C224.07 328.103 237.362 331.357 249.905 336.613L253.857 338.257V252.9L248.107 250.513C235.965 245.439 223.1 242.303 209.984 241.219Z" fill="#57BBDD"/>
<path d="M196 253.614V339.328H245.149C244.885 339.225 244.621 339.114 244.355 339.015C243.742 338.782 243.124 338.559 242.507 338.334C241.636 338.018 240.767 337.711 239.89 337.417C239.256 337.202 238.62 336.994 237.982 336.791C237.113 336.505 236.24 336.236 235.367 335.985C234.723 335.797 234.081 335.608 233.438 335.428C232.557 335.184 231.674 334.953 230.789 334.726C230.146 334.56 229.503 334.395 228.846 334.241C227.948 334.027 227.045 333.83 226.143 333.636C225.501 333.497 224.857 333.356 224.215 333.227C223.28 333.043 222.342 332.878 221.403 332.713C220.788 332.606 220.173 332.499 219.557 332.389C218.521 332.225 217.482 332.086 216.443 331.945C215.918 331.875 215.397 331.792 214.872 331.732C213.301 331.542 211.729 331.379 210.158 331.246L204.389 330.757C203.277 330.662 202.424 329.729 202.428 328.614V253.614H196Z" fill="#57BBDD"/>
</svg>
